<?xml version="1.0" encoding="UTF-8" standalone="no"?>
<!DOCTYPE svg PUBLIC "-//W3C//DTD SVG 1.1//EN"
 "http://www.w3.org/Graphics/SVG/1.1/DTD/svg11.dtd">
<!-- Generated by graphviz version 2.40.1 (20161225.0304)
 -->
<!-- Title: G Pages: 1 -->
<svg width="642pt" height="466pt"
 viewBox="0.00 0.00 641.74 466.30" xmlns="http://www.w3.org/2000/svg" xmlns:xlink="http://www.w3.org/1999/xlink">
<g id="graph0" class="graph" transform="scale(1 1) rotate(0) translate(21.6 444.6986)">
<title>G</title>
<polygon fill="#111111" stroke="transparent" points="-21.6,21.6 -21.6,-444.6986 620.1352,-444.6986 620.1352,21.6 -21.6,21.6"/>
<!-- @account/app -->
<g id="node1" class="node">
<title>@account/app</title>
<path fill="none" stroke="#c6c5fe" d="M98.6765,-24.1482C98.6765,-24.1482 7.8177,-24.1482 7.8177,-24.1482 3.7847,-24.1482 -.2482,-20.1152 -.2482,-16.0823 -.2482,-16.0823 -.2482,-8.0164 -.2482,-8.0164 -.2482,-3.9834 3.7847,.0495 7.8177,.0495 7.8177,.0495 98.6765,.0495 98.6765,.0495 102.7094,.0495 106.7424,-3.9834 106.7424,-8.0164 106.7424,-8.0164 106.7424,-16.0823 106.7424,-16.0823 106.7424,-20.1152 102.7094,-24.1482 98.6765,-24.1482"/>
<text text-anchor="middle" x="53.2471" y="-8.8986" font-family="Arial" font-size="14.00" fill="#c6c5fe">@account/app</text>
</g>
<!-- @admin/app -->
<g id="node2" class="node">
<title>@admin/app</title>
<path fill="none" stroke="#c6c5fe" d="M92.7729,-66.1482C92.7729,-66.1482 13.7213,-66.1482 13.7213,-66.1482 9.6883,-66.1482 5.6554,-62.1152 5.6554,-58.0823 5.6554,-58.0823 5.6554,-50.0164 5.6554,-50.0164 5.6554,-45.9834 9.6883,-41.9505 13.7213,-41.9505 13.7213,-41.9505 92.7729,-41.9505 92.7729,-41.9505 96.8058,-41.9505 100.8388,-45.9834 100.8388,-50.0164 100.8388,-50.0164 100.8388,-58.0823 100.8388,-58.0823 100.8388,-62.1152 96.8058,-66.1482 92.7729,-66.1482"/>
<text text-anchor="middle" x="53.2471" y="-50.8986" font-family="Arial" font-size="14.00" fill="#c6c5fe">@admin/app</text>
</g>
<!-- @mailer/app -->
<g id="node3" class="node">
<title>@mailer/app</title>
<path fill="none" stroke="#c6c5fe" d="M92.7593,-108.1482C92.7593,-108.1482 13.7349,-108.1482 13.7349,-108.1482 9.7019,-108.1482 5.669,-104.1152 5.669,-100.0823 5.669,-100.0823 5.669,-92.0164 5.669,-92.0164 5.669,-87.9834 9.7019,-83.9505 13.7349,-83.9505 13.7349,-83.9505 92.7593,-83.9505 92.7593,-83.9505 96.7922,-83.9505 100.8252,-87.9834 100.8252,-92.0164 100.8252,-92.0164 100.8252,-100.0823 100.8252,-100.0823 100.8252,-104.1152 96.7922,-108.1482 92.7593,-108.1482"/>
<text text-anchor="middle" x="53.2471" y="-92.8986" font-family="Arial" font-size="14.00" fill="#c6c5fe">@mailer/app</text>
</g>
<!-- @site/app -->
<g id="node4" class="node">
<title>@site/app</title>
<path fill="none" stroke="#c6c5fe" d="M84.9277,-150.1482C84.9277,-150.1482 21.5665,-150.1482 21.5665,-150.1482 17.5335,-150.1482 13.5006,-146.1152 13.5006,-142.0823 13.5006,-142.0823 13.5006,-134.0164 13.5006,-134.0164 13.5006,-129.9834 17.5335,-125.9505 21.5665,-125.9505 21.5665,-125.9505 84.9277,-125.9505 84.9277,-125.9505 88.9606,-125.9505 92.9935,-129.9834 92.9935,-134.0164 92.9935,-134.0164 92.9935,-142.0823 92.9935,-142.0823 92.9935,-146.1152 88.9606,-150.1482 84.9277,-150.1482"/>
<text text-anchor="middle" x="53.2471" y="-134.8986" font-family="Arial" font-size="14.00" fill="#c6c5fe">@site/app</text>
</g>
<!-- @sso/app -->
<g id="node5" class="node">
<title>@sso/app</title>
<path fill="none" stroke="#c6c5fe" d="M84.9277,-192.1482C84.9277,-192.1482 21.5665,-192.1482 21.5665,-192.1482 17.5335,-192.1482 13.5006,-188.1152 13.5006,-184.0823 13.5006,-184.0823 13.5006,-176.0164 13.5006,-176.0164 13.5006,-171.9834 17.5335,-167.9505 21.5665,-167.9505 21.5665,-167.9505 84.9277,-167.9505 84.9277,-167.9505 88.9606,-167.9505 92.9935,-171.9834 92.9935,-176.0164 92.9935,-176.0164 92.9935,-184.0823 92.9935,-184.0823 92.9935,-188.1152 88.9606,-192.1482 84.9277,-192.1482"/>
<text text-anchor="middle" x="53.2471" y="-176.8986" font-family="Arial" font-size="14.00" fill="#c6c5fe">@sso/app</text>
</g>
<!-- @sso/login&#45;page -->
<g id="node6" class="node">
<title>@sso/login&#45;page</title>
<path fill="none" stroke="#c6c5fe" d="M294.7489,-234.1482C294.7489,-234.1482 189.3332,-234.1482 189.3332,-234.1482 185.3002,-234.1482 181.2673,-230.1152 181.2673,-226.0823 181.2673,-226.0823 181.2673,-218.0164 181.2673,-218.0164 181.2673,-213.9834 185.3002,-209.9505 189.3332,-209.9505 189.3332,-209.9505 294.7489,-209.9505 294.7489,-209.9505 298.7818,-209.9505 302.8148,-213.9834 302.8148,-218.0164 302.8148,-218.0164 302.8148,-226.0823 302.8148,-226.0823 302.8148,-230.1152 298.7818,-234.1482 294.7489,-234.1482"/>
<text text-anchor="middle" x="242.041" y="-218.8986" font-family="Arial" font-size="14.00" fill="#c6c5fe">@sso/login&#45;page</text>
</g>
<!-- @sso/app&#45;&gt;@sso/login&#45;page -->
<g id="edge1" class="edge">
<title>@sso/app&#45;&gt;@sso/login&#45;page</title>
<path fill="none" stroke="#757575" d="M93.186,-189.6556C108.5785,-193.3031 126.3372,-197.4447 142.4941,-201.0493 154.1089,-203.6405 166.5052,-206.3224 178.4672,-208.8677"/>
<polygon fill="#757575" stroke="#757575" points="178.3092,-210.6231 183.5636,-209.9496 179.036,-207.1994 178.3092,-210.6231"/>
</g>
<!-- @sso/register&#45;page -->
<g id="node17" class="node">
<title>@sso/register&#45;page</title>
<path fill="none" stroke="#c6c5fe" d="M303.3526,-276.1482C303.3526,-276.1482 180.7294,-276.1482 180.7294,-276.1482 176.6965,-276.1482 172.6635,-272.1152 172.6635,-268.0823 172.6635,-268.0823 172.6635,-260.0164 172.6635,-260.0164 172.6635,-255.9834 176.6965,-251.9505 180.7294,-251.9505 180.7294,-251.9505 303.3526,-251.9505 303.3526,-251.9505 307.3855,-251.9505 311.4185,-255.9834 311.4185,-260.0164 311.4185,-260.0164 311.4185,-268.0823 311.4185,-268.0823 311.4185,-272.1152 307.3855,-276.1482 303.3526,-276.1482"/>
<text text-anchor="middle" x="242.041" y="-260.8986" font-family="Arial" font-size="14.00" fill="#c6c5fe">@sso/register&#45;page</text>
</g>
<!-- @sso/app&#45;&gt;@sso/register&#45;page -->
<g id="edge14" class="edge">
<title>@sso/app&#45;&gt;@sso/register&#45;page</title>
<path fill="none" stroke="#757575" d="M66.6901,-192.2377C83.2821,-206.6071 112.9411,-230.1592 142.4941,-243.0493 150.4853,-246.5348 159.0957,-249.4569 167.7894,-251.9034"/>
<polygon fill="#757575" stroke="#757575" points="167.3406,-253.5948 172.6244,-253.2141 168.2564,-250.2167 167.3406,-253.5948"/>
</g>
<!-- @sso/reset&#45;password&#45;page -->
<g id="node18" class="node">
<title>@sso/reset&#45;password&#45;page</title>
<path fill="none" stroke="#c6c5fe" d="M327.873,-192.1482C327.873,-192.1482 156.209,-192.1482 156.209,-192.1482 152.1761,-192.1482 148.1431,-188.1152 148.1431,-184.0823 148.1431,-184.0823 148.1431,-176.0164 148.1431,-176.0164 148.1431,-171.9834 152.1761,-167.9505 156.209,-167.9505 156.209,-167.9505 327.873,-167.9505 327.873,-167.9505 331.906,-167.9505 335.9389,-171.9834 335.9389,-176.0164 335.9389,-176.0164 335.9389,-184.0823 335.9389,-184.0823 335.9389,-188.1152 331.906,-192.1482 327.873,-192.1482"/>
<text text-anchor="middle" x="242.041" y="-176.8986" font-family="Arial" font-size="14.00" fill="#c6c5fe">@sso/reset&#45;password&#45;page</text>
</g>
<!-- @sso/app&#45;&gt;@sso/reset&#45;password&#45;page -->
<g id="edge27" class="edge">
<title>@sso/app&#45;&gt;@sso/reset&#45;password&#45;page</title>
<path fill="none" stroke="#757575" d="M93.2854,-180.0493C107.9012,-180.0493 125.1543,-180.0493 142.6371,-180.0493"/>
<polygon fill="#757575" stroke="#757575" points="143.0675,-181.7994 148.0675,-180.0493 143.0675,-178.2994 143.0675,-181.7994"/>
</g>
<!-- @sso/update&#45;password&#45;page -->
<g id="node19" class="node">
<title>@sso/update&#45;password&#45;page</title>
<path fill="none" stroke="#c6c5fe" d="M333.5689,-150.1482C333.5689,-150.1482 150.5131,-150.1482 150.5131,-150.1482 146.4802,-150.1482 142.4472,-146.1152 142.4472,-142.0823 142.4472,-142.0823 142.4472,-134.0164 142.4472,-134.0164 142.4472,-129.9834 146.4802,-125.9505 150.5131,-125.9505 150.5131,-125.9505 333.5689,-125.9505 333.5689,-125.9505 337.6018,-125.9505 341.6348,-129.9834 341.6348,-134.0164 341.6348,-134.0164 341.6348,-142.0823 341.6348,-142.0823 341.6348,-146.1152 337.6018,-150.1482 333.5689,-150.1482"/>
<text text-anchor="middle" x="242.041" y="-134.8986" font-family="Arial" font-size="14.00" fill="#c6c5fe">@sso/update&#45;password&#45;page</text>
</g>
<!-- @sso/app&#45;&gt;@sso/update&#45;password&#45;page -->
<g id="edge28" class="edge">
<title>@sso/app&#45;&gt;@sso/update&#45;password&#45;page</title>
<path fill="none" stroke="#757575" d="M93.186,-170.4431C108.5785,-166.7956 126.3372,-162.6539 142.4941,-159.0493 154.1089,-156.4581 166.5052,-153.7762 178.4672,-151.2309"/>
<polygon fill="#757575" stroke="#757575" points="179.036,-152.8992 183.5636,-150.1491 178.3092,-149.4755 179.036,-152.8992"/>
</g>
<!-- @sso/verify&#45;email&#45;page -->
<g id="node20" class="node">
<title>@sso/verify&#45;email&#45;page</title>
<path fill="none" stroke="#c6c5fe" d="M315.7351,-108.1482C315.7351,-108.1482 168.3469,-108.1482 168.3469,-108.1482 164.314,-108.1482 160.281,-104.1152 160.281,-100.0823 160.281,-100.0823 160.281,-92.0164 160.281,-92.0164 160.281,-87.9834 164.314,-83.9505 168.3469,-83.9505 168.3469,-83.9505 315.7351,-83.9505 315.7351,-83.9505 319.768,-83.9505 323.801,-87.9834 323.801,-92.0164 323.801,-92.0164 323.801,-100.0823 323.801,-100.0823 323.801,-104.1152 319.768,-108.1482 315.7351,-108.1482"/>
<text text-anchor="middle" x="242.041" y="-92.8986" font-family="Arial" font-size="14.00" fill="#c6c5fe">@sso/verify&#45;email&#45;page</text>
</g>
<!-- @sso/app&#45;&gt;@sso/verify&#45;email&#45;page -->
<g id="edge29" class="edge">
<title>@sso/app&#45;&gt;@sso/verify&#45;email&#45;page</title>
<path fill="none" stroke="#757575" d="M90.8293,-167.9242C96.3162,-165.3997 101.7187,-162.4507 106.4941,-159.0493 126.5192,-144.786 121.3445,-129.5848 142.4941,-117.0493 146.9385,-114.4151 151.6668,-112.1087 156.5562,-110.0896"/>
<polygon fill="#757575" stroke="#757575" points="157.4716,-111.6111 161.4947,-108.1648 156.2005,-108.3501 157.4716,-111.6111"/>
</g>
<!-- @ui/layout -->
<g id="node7" class="node">
<title>@ui/layout</title>
<path fill="none" stroke="#c6c5fe" d="M461.3988,-171.1482C461.3988,-171.1482 394.8161,-171.1482 394.8161,-171.1482 390.7831,-171.1482 386.7502,-167.1152 386.7502,-163.0823 386.7502,-163.0823 386.7502,-155.0164 386.7502,-155.0164 386.7502,-150.9834 390.7831,-146.9505 394.8161,-146.9505 394.8161,-146.9505 461.3988,-146.9505 461.3988,-146.9505 465.4317,-146.9505 469.4646,-150.9834 469.4646,-155.0164 469.4646,-155.0164 469.4646,-163.0823 469.4646,-163.0823 469.4646,-167.1152 465.4317,-171.1482 461.3988,-171.1482"/>
<text text-anchor="middle" x="428.1074" y="-155.8986" font-family="Arial" font-size="14.00" fill="#c6c5fe">@ui/layout</text>
</g>
<!-- @sso/login&#45;page&#45;&gt;@ui/layout -->
<g id="edge2" class="edge">
<title>@sso/login&#45;page&#45;&gt;@ui/layout</title>
<path fill="none" stroke="#757575" d="M302.6882,-212.4881C315.7477,-209.5401 329.3101,-205.7831 341.5879,-201.0493 358.8711,-194.3857 360.9984,-188.2895 377.5879,-180.0493 382.3424,-177.6877 387.4288,-175.3564 392.4757,-173.1546"/>
<polygon fill="#757575" stroke="#757575" points="393.1861,-174.7541 397.0887,-171.1718 391.804,-171.5385 393.1861,-174.7541"/>
</g>
<!-- @ui/condition -->
<g id="node8" class="node">
<title>@ui/condition</title>
<path fill="none" stroke="#c6c5fe" d="M470.5806,-129.1482C470.5806,-129.1482 385.6342,-129.1482 385.6342,-129.1482 381.6013,-129.1482 377.5684,-125.1152 377.5684,-121.0823 377.5684,-121.0823 377.5684,-113.0164 377.5684,-113.0164 377.5684,-108.9834 381.6013,-104.9505 385.6342,-104.9505 385.6342,-104.9505 470.5806,-104.9505 470.5806,-104.9505 474.6135,-104.9505 478.6465,-108.9834 478.6465,-113.0164 478.6465,-113.0164 478.6465,-121.0823 478.6465,-121.0823 478.6465,-125.1152 474.6135,-129.1482 470.5806,-129.1482"/>
<text text-anchor="middle" x="428.1074" y="-113.8986" font-family="Arial" font-size="14.00" fill="#c6c5fe">@ui/condition</text>
</g>
<!-- @sso/login&#45;page&#45;&gt;@ui/condition -->
<g id="edge3" class="edge">
<title>@sso/login&#45;page&#45;&gt;@ui/condition</title>
<path fill="none" stroke="#757575" d="M302.8269,-217.6005C316.5144,-214.4134 330.3112,-209.2675 341.5879,-201.0493 367.6502,-182.0557 353.4025,-159.3816 377.5879,-138.0493 380.2814,-135.6735 383.2814,-133.5415 386.4386,-131.6329"/>
<polygon fill="#757575" stroke="#757575" points="387.3255,-133.1419 390.8272,-129.1669 385.6109,-130.0906 387.3255,-133.1419"/>
</g>
<!-- @ui/form -->
<g id="node9" class="node">
<title>@ui/form</title>
<path fill="none" stroke="#c6c5fe" d="M456.5396,-87.1482C456.5396,-87.1482 399.6753,-87.1482 399.6753,-87.1482 395.6423,-87.1482 391.6094,-83.1152 391.6094,-79.0823 391.6094,-79.0823 391.6094,-71.0164 391.6094,-71.0164 391.6094,-66.9834 395.6423,-62.9505 399.6753,-62.9505 399.6753,-62.9505 456.5396,-62.9505 456.5396,-62.9505 460.5725,-62.9505 464.6055,-66.9834 464.6055,-71.0164 464.6055,-71.0164 464.6055,-79.0823 464.6055,-79.0823 464.6055,-83.1152 460.5725,-87.1482 456.5396,-87.1482"/>
<text text-anchor="middle" x="428.1074" y="-71.8986" font-family="Arial" font-size="14.00" fill="#c6c5fe">@ui/form</text>
</g>
<!-- @sso/login&#45;page&#45;&gt;@ui/form -->
<g id="edge4" class="edge">
<title>@sso/login&#45;page&#45;&gt;@ui/form</title>
<path fill="none" stroke="#757575" d="M302.7143,-219.3735C316.7991,-216.1798 330.8055,-210.5867 341.5879,-201.0493 378.5399,-168.3641 343.8317,-132.0256 377.5879,-96.0493 380.2688,-93.1921 383.3974,-90.7104 386.7599,-88.5574"/>
<polygon fill="#757575" stroke="#757575" points="388.0258,-89.8459 391.4699,-85.8209 386.2675,-86.8196 388.0258,-89.8459"/>
</g>
<!-- @ui/divider -->
<g id="node10" class="node">
<title>@ui/divider</title>
<path fill="none" stroke="#c6c5fe" d="M463.2811,-423.1482C463.2811,-423.1482 392.9337,-423.1482 392.9337,-423.1482 388.9008,-423.1482 384.8678,-419.1152 384.8678,-415.0823 384.8678,-415.0823 384.8678,-407.0164 384.8678,-407.0164 384.8678,-402.9834 388.9008,-398.9505 392.9337,-398.9505 392.9337,-398.9505 463.2811,-398.9505 463.2811,-398.9505 467.3141,-398.9505 471.347,-402.9834 471.347,-407.0164 471.347,-407.0164 471.347,-415.0823 471.347,-415.0823 471.347,-419.1152 467.3141,-423.1482 463.2811,-423.1482"/>
<text text-anchor="middle" x="428.1074" y="-407.8986" font-family="Arial" font-size="14.00" fill="#c6c5fe">@ui/divider</text>
</g>
<!-- @sso/login&#45;page&#45;&gt;@ui/divider -->
<g id="edge5" class="edge">
<title>@sso/login&#45;page&#45;&gt;@ui/divider</title>
<path fill="none" stroke="#757575" d="M302.8104,-223.9446C317.0594,-227.1289 331.1192,-232.913 341.5879,-243.0493 389.9118,-289.8387 333.8191,-338.9735 377.5879,-390.0493 379.4421,-392.213 381.5554,-394.158 383.8418,-395.9058"/>
<polygon fill="#757575" stroke="#757575" points="383.0122,-397.4589 388.1255,-398.8436 384.9918,-394.5724 383.0122,-397.4589"/>
</g>
<!-- @ui/button -->
<g id="node12" class="node">
<title>@ui/button</title>
<path fill="none" stroke="#c6c5fe" d="M461.9634,-297.1482C461.9634,-297.1482 394.2514,-297.1482 394.2514,-297.1482 390.2185,-297.1482 386.1855,-293.1152 386.1855,-289.0823 386.1855,-289.0823 386.1855,-281.0164 386.1855,-281.0164 386.1855,-276.9834 390.2185,-272.9505 394.2514,-272.9505 394.2514,-272.9505 461.9634,-272.9505 461.9634,-272.9505 465.9964,-272.9505 470.0293,-276.9834 470.0293,-281.0164 470.0293,-281.0164 470.0293,-289.0823 470.0293,-289.0823 470.0293,-293.1152 465.9964,-297.1482 461.9634,-297.1482"/>
<text text-anchor="middle" x="428.1074" y="-281.8986" font-family="Arial" font-size="14.00" fill="#c6c5fe">@ui/button</text>
</g>
<!-- @sso/login&#45;page&#45;&gt;@ui/button -->
<g id="edge7" class="edge">
<title>@sso/login&#45;page&#45;&gt;@ui/button</title>
<path fill="none" stroke="#757575" d="M302.6882,-231.6106C315.7477,-234.5585 329.3101,-238.3155 341.5879,-243.0493 358.8711,-249.7129 360.9984,-255.8091 377.5879,-264.0493 382.3424,-266.4109 387.4288,-268.7423 392.4757,-270.9441"/>
<polygon fill="#757575" stroke="#757575" points="391.804,-272.5601 397.0887,-272.9268 393.1861,-269.3446 391.804,-272.5601"/>
</g>
<!-- @ui/input -->
<g id="node13" class="node">
<title>@ui/input</title>
<path fill="none" stroke="#c6c5fe" d="M457.8988,-255.1482C457.8988,-255.1482 398.316,-255.1482 398.316,-255.1482 394.2831,-255.1482 390.2501,-251.1152 390.2501,-247.0823 390.2501,-247.0823 390.2501,-239.0164 390.2501,-239.0164 390.2501,-234.9834 394.2831,-230.9505 398.316,-230.9505 398.316,-230.9505 457.8988,-230.9505 457.8988,-230.9505 461.9318,-230.9505 465.9647,-234.9834 465.9647,-239.0164 465.9647,-239.0164 465.9647,-247.0823 465.9647,-247.0823 465.9647,-251.1152 461.9318,-255.1482 457.8988,-255.1482"/>
<text text-anchor="middle" x="428.1074" y="-239.8986" font-family="Arial" font-size="14.00" fill="#c6c5fe">@ui/input</text>
</g>
<!-- @sso/login&#45;page&#45;&gt;@ui/input -->
<g id="edge8" class="edge">
<title>@sso/login&#45;page&#45;&gt;@ui/input</title>
<path fill="none" stroke="#757575" d="M302.7087,-228.8964C329.6388,-231.9359 360.7024,-235.4418 385.1747,-238.2038"/>
<polygon fill="#757575" stroke="#757575" points="385.1282,-239.9596 390.293,-238.7815 385.5208,-236.4817 385.1282,-239.9596"/>
</g>
<!-- @ui/logo -->
<g id="node14" class="node">
<title>@ui/logo</title>
<path fill="none" stroke="#c6c5fe" d="M456.0099,-213.1482C456.0099,-213.1482 400.205,-213.1482 400.205,-213.1482 396.172,-213.1482 392.1391,-209.1152 392.1391,-205.0823 392.1391,-205.0823 392.1391,-197.0164 392.1391,-197.0164 392.1391,-192.9834 396.172,-188.9505 400.205,-188.9505 400.205,-188.9505 456.0099,-188.9505 456.0099,-188.9505 460.0428,-188.9505 464.0758,-192.9834 464.0758,-197.0164 464.0758,-197.0164 464.0758,-205.0823 464.0758,-205.0823 464.0758,-209.1152 460.0428,-213.1482 456.0099,-213.1482"/>
<text text-anchor="middle" x="428.1074" y="-197.8986" font-family="Arial" font-size="14.00" fill="#c6c5fe">@ui/logo</text>
</g>
<!-- @sso/login&#45;page&#45;&gt;@ui/logo -->
<g id="edge9" class="edge">
<title>@sso/login&#45;page&#45;&gt;@ui/logo</title>
<path fill="none" stroke="#757575" d="M302.7087,-215.2022C330.3319,-212.0846 362.304,-208.4761 387.0509,-205.6831"/>
<polygon fill="#757575" stroke="#757575" points="387.4456,-207.3997 392.2177,-205.0999 387.053,-203.9218 387.4456,-207.3997"/>
</g>
<!-- @ui/link -->
<g id="node15" class="node">
<title>@ui/link</title>
<path fill="none" stroke="#c6c5fe" d="M453.0464,-381.1482C453.0464,-381.1482 403.1684,-381.1482 403.1684,-381.1482 399.1355,-381.1482 395.1025,-377.1152 395.1025,-373.0823 395.1025,-373.0823 395.1025,-365.0164 395.1025,-365.0164 395.1025,-360.9834 399.1355,-356.9505 403.1684,-356.9505 403.1684,-356.9505 453.0464,-356.9505 453.0464,-356.9505 457.0794,-356.9505 461.1123,-360.9834 461.1123,-365.0164 461.1123,-365.0164 461.1123,-373.0823 461.1123,-373.0823 461.1123,-377.1152 457.0794,-381.1482 453.0464,-381.1482"/>
<text text-anchor="middle" x="428.1074" y="-365.8986" font-family="Arial" font-size="14.00" fill="#c6c5fe">@ui/link</text>
</g>
<!-- @sso/login&#45;page&#45;&gt;@ui/link -->
<g id="edge10" class="edge">
<title>@sso/login&#45;page&#45;&gt;@ui/link</title>
<path fill="none" stroke="#757575" d="M302.7143,-224.7251C316.7991,-227.9188 330.8055,-233.5119 341.5879,-243.0493 378.5399,-275.7346 343.8317,-312.073 377.5879,-348.0493 381.2701,-351.9737 385.7969,-355.1896 390.6141,-357.8184"/>
<polygon fill="#757575" stroke="#757575" points="389.8499,-359.3929 395.1038,-360.0711 391.4196,-356.2646 389.8499,-359.3929"/>
</g>
<!-- @ui/text -->
<g id="node16" class="node">
<title>@ui/text</title>
<path fill="none" stroke="#c6c5fe" d="M453.6064,-339.1482C453.6064,-339.1482 402.6084,-339.1482 402.6084,-339.1482 398.5755,-339.1482 394.5425,-335.1152 394.5425,-331.0823 394.5425,-331.0823 394.5425,-323.0164 394.5425,-323.0164 394.5425,-318.9834 398.5755,-314.9505 402.6084,-314.9505 402.6084,-314.9505 453.6064,-314.9505 453.6064,-314.9505 457.6394,-314.9505 461.6723,-318.9834 461.6723,-323.0164 461.6723,-323.0164 461.6723,-331.0823 461.6723,-331.0823 461.6723,-335.1152 457.6394,-339.1482 453.6064,-339.1482"/>
<text text-anchor="middle" x="428.1074" y="-323.8986" font-family="Arial" font-size="14.00" fill="#c6c5fe">@ui/text</text>
</g>
<!-- @sso/login&#45;page&#45;&gt;@ui/text -->
<g id="edge12" class="edge">
<title>@sso/login&#45;page&#45;&gt;@ui/text</title>
<path fill="none" stroke="#757575" d="M302.8269,-226.4981C316.5144,-229.6852 330.3112,-234.8311 341.5879,-243.0493 367.6502,-262.0429 353.4025,-284.717 377.5879,-306.0493 381.2742,-309.3008 385.5346,-312.0958 389.9863,-314.4861"/>
<polygon fill="#757575" stroke="#757575" points="389.2336,-316.0664 394.4876,-316.7434 390.8026,-312.9377 389.2336,-316.0664"/>
</g>
<!-- @ui/theme -->
<g id="node11" class="node">
<title>@ui/theme</title>
<path fill="none" stroke="#c6c5fe" d="M590.4234,-381.1482C590.4234,-381.1482 522.7387,-381.1482 522.7387,-381.1482 518.7057,-381.1482 514.6728,-377.1152 514.6728,-373.0823 514.6728,-373.0823 514.6728,-365.0164 514.6728,-365.0164 514.6728,-360.9834 518.7057,-356.9505 522.7387,-356.9505 522.7387,-356.9505 590.4234,-356.9505 590.4234,-356.9505 594.4564,-356.9505 598.4893,-360.9834 598.4893,-365.0164 598.4893,-365.0164 598.4893,-373.0823 598.4893,-373.0823 598.4893,-377.1152 594.4564,-381.1482 590.4234,-381.1482"/>
<text text-anchor="middle" x="556.5811" y="-365.8986" font-family="Arial" font-size="14.00" fill="#c6c5fe">@ui/theme</text>
</g>
<!-- @ui/divider&#45;&gt;@ui/theme -->
<g id="edge6" class="edge">
<title>@ui/divider&#45;&gt;@ui/theme</title>
<path fill="none" stroke="#757575" d="M449.3222,-398.9475C465.6853,-392.1473 488.9413,-384.0906 509.618,-377.874"/>
<polygon fill="#757575" stroke="#757575" points="510.2399,-379.515 514.5362,-376.416 509.245,-376.1594 510.2399,-379.515"/>
</g>
<!-- @ui/divider&#45;&gt;@ui/theme -->
<g id="edge19" class="edge">
<title>@ui/divider&#45;&gt;@ui/theme</title>
<path fill="none" stroke="#757575" d="M471.2447,-403.3624C490.9677,-397.5621 513.6761,-389.8464 530.7069,-383.0476"/>
<polygon fill="#757575" stroke="#757575" points="531.3814,-384.6626 535.3527,-381.1567 530.0619,-381.4208 531.3814,-384.6626"/>
</g>
<!-- @ui/link&#45;&gt;@ui/theme -->
<g id="edge11" class="edge">
<title>@ui/link&#45;&gt;@ui/theme</title>
<path fill="none" stroke="#757575" d="M461.1926,-363.0611C475.7542,-362.2885 493.1338,-362.1036 509.0445,-362.5063"/>
<polygon fill="#757575" stroke="#757575" points="509.3278,-364.2654 514.3778,-362.6654 509.4322,-360.767 509.3278,-364.2654"/>
</g>
<!-- @ui/link&#45;&gt;@ui/theme -->
<g id="edge24" class="edge">
<title>@ui/link&#45;&gt;@ui/theme</title>
<path fill="none" stroke="#757575" d="M461.1926,-375.0376C475.7542,-375.8101 493.1338,-375.995 509.0445,-375.5923"/>
<polygon fill="#757575" stroke="#757575" points="509.4322,-377.3316 514.3778,-375.4332 509.3278,-373.8332 509.4322,-377.3316"/>
</g>
<!-- @ui/text&#45;&gt;@ui/theme -->
<g id="edge13" class="edge">
<title>@ui/text&#45;&gt;@ui/theme</title>
<path fill="none" stroke="#757575" d="M461.8624,-332.0611C483.2458,-337.95 510.4958,-347.0092 530.2728,-354.878"/>
<polygon fill="#757575" stroke="#757575" points="529.8406,-356.5912 535.1317,-356.8502 531.157,-353.3481 529.8406,-356.5912"/>
</g>
<!-- @ui/text&#45;&gt;@ui/theme -->
<g id="edge26" class="edge">
<title>@ui/text&#45;&gt;@ui/theme</title>
<path fill="none" stroke="#757575" d="M449.3222,-339.1511C465.6853,-345.9513 488.9413,-354.008 509.618,-360.2246"/>
<polygon fill="#757575" stroke="#757575" points="509.245,-361.9393 514.5362,-361.6827 510.2399,-358.5836 509.245,-361.9393"/>
</g>
<!-- @sso/register&#45;page&#45;&gt;@ui/layout -->
<g id="edge15" class="edge">
<title>@sso/register&#45;page&#45;&gt;@ui/layout</title>
<path fill="none" stroke="#757575" d="M311.3936,-257.337C322.1677,-254.1298 332.6664,-249.5511 341.5879,-243.0493 367.6502,-224.0557 353.4025,-201.3816 377.5879,-180.0493 380.2814,-177.6735 383.2814,-175.5415 386.4386,-173.6329"/>
<polygon fill="#757575" stroke="#757575" points="387.3255,-175.1419 390.8272,-171.1669 385.6109,-172.0906 387.3255,-175.1419"/>
</g>
<!-- @sso/register&#45;page&#45;&gt;@ui/condition -->
<g id="edge16" class="edge">
<title>@sso/register&#45;page&#45;&gt;@ui/condition</title>
<path fill="none" stroke="#757575" d="M311.2331,-259.1259C322.3383,-255.7535 332.9884,-250.6558 341.5879,-243.0493 378.5399,-210.3641 343.8317,-174.0256 377.5879,-138.0493 379.6189,-135.8847 381.9068,-133.9357 384.3587,-132.1818"/>
<polygon fill="#757575" stroke="#757575" points="385.6776,-133.4134 388.9292,-129.2312 383.7793,-130.4729 385.6776,-133.4134"/>
</g>
<!-- @sso/register&#45;page&#45;&gt;@ui/form -->
<g id="edge17" class="edge">
<title>@sso/register&#45;page&#45;&gt;@ui/form</title>
<path fill="none" stroke="#757575" d="M311.3099,-259.9174C322.5397,-256.482 333.2129,-251.1583 341.5879,-243.0493 389.9118,-196.2599 333.8191,-147.1251 377.5879,-96.0493 380.1799,-93.0246 383.2784,-90.4274 386.6479,-88.1987"/>
<polygon fill="#757575" stroke="#757575" points="387.9837,-89.4407 391.3886,-85.3824 386.1961,-86.4316 387.9837,-89.4407"/>
</g>
<!-- @sso/register&#45;page&#45;&gt;@ui/divider -->
<g id="edge18" class="edge">
<title>@sso/register&#45;page&#45;&gt;@ui/divider</title>
<path fill="none" stroke="#757575" d="M252.4853,-276.3304C273.8274,-300.794 324.8895,-356.1647 377.5879,-390.0493 381.4015,-392.5015 385.5495,-394.7693 389.7744,-396.8362"/>
<polygon fill="#757575" stroke="#757575" points="389.1074,-398.4564 394.3769,-398.9995 390.5963,-395.2888 389.1074,-398.4564"/>
</g>
<!-- @sso/register&#45;page&#45;&gt;@ui/button -->
<g id="edge20" class="edge">
<title>@sso/register&#45;page&#45;&gt;@ui/button</title>
<path fill="none" stroke="#757575" d="M311.3253,-271.8689C334.5693,-274.4923 359.933,-277.355 381.0662,-279.7401"/>
<polygon fill="#757575" stroke="#757575" points="380.8993,-281.4823 386.0641,-280.3042 381.2919,-278.0044 380.8993,-281.4823"/>
</g>
<!-- @sso/register&#45;page&#45;&gt;@ui/input -->
<g id="edge21" class="edge">
<title>@sso/register&#45;page&#45;&gt;@ui/input</title>
<path fill="none" stroke="#757575" d="M311.3253,-256.2297C336.0998,-253.4336 363.2823,-250.3657 385.1838,-247.8938"/>
<polygon fill="#757575" stroke="#757575" points="385.5734,-249.611 390.3455,-247.3112 385.1808,-246.1331 385.5734,-249.611"/>
</g>
<!-- @sso/register&#45;page&#45;&gt;@ui/logo -->
<g id="edge22" class="edge">
<title>@sso/register&#45;page&#45;&gt;@ui/logo</title>
<path fill="none" stroke="#757575" d="M311.4199,-252.4085C321.6922,-249.828 332.0293,-246.7347 341.5879,-243.0493 358.8711,-236.3857 360.9984,-230.2895 377.5879,-222.0493 382.3424,-219.6877 387.4288,-217.3564 392.4757,-215.1546"/>
<polygon fill="#757575" stroke="#757575" points="393.1861,-216.7541 397.0887,-213.1718 391.804,-213.5385 393.1861,-216.7541"/>
</g>
<!-- @sso/register&#45;page&#45;&gt;@ui/link -->
<g id="edge23" class="edge">
<title>@sso/register&#45;page&#45;&gt;@ui/link</title>
<path fill="none" stroke="#757575" d="M259.4879,-276.1325C284.7989,-293.3642 333.504,-325.4133 377.5879,-348.0493 382.1506,-350.3922 387.0363,-352.681 391.9057,-354.8344"/>
<polygon fill="#757575" stroke="#757575" points="391.4736,-356.5545 396.7571,-356.9396 392.8669,-353.3438 391.4736,-356.5545"/>
</g>
<!-- @sso/register&#45;page&#45;&gt;@ui/text -->
<g id="edge25" class="edge">
<title>@sso/register&#45;page&#45;&gt;@ui/text</title>
<path fill="none" stroke="#757575" d="M277.9165,-276.1964C310.0248,-287.0678 356.9631,-302.9606 389.7951,-314.0772"/>
<polygon fill="#757575" stroke="#757575" points="389.2363,-315.7355 394.5334,-315.6815 390.3588,-312.4204 389.2363,-315.7355"/>
</g>
</g>
</svg>
